<svg width="89" height="83" viewBox="0 0 89 83" fill="none" xmlns="http://www.w3.org/2000/svg">
<path d="M58.5078 0.398438L68.5137 4.58789L69.3926 4.95703L69.8926 5.76758L73.668 11.9189L74.3193 12.9756L74.0156 14.1787L73.2549 17.2139L78.083 18.4111L79.5 18.7607L84.8311 30.9219L82.4463 37.9248L87.2539 40.2764L87.4531 41.8545L89 53.9355L88.584 54.7471L83.6807 64.332L82.3623 64.6553L78.5859 65.5752L77.2588 74.6465L66.2061 82.3623L65.2959 83L50.1553 81.3555L44.5 74.7217L38.8447 81.3555L23.7041 83L22.7939 82.3623L11.7412 74.6465L10.4141 65.5752L6.6377 64.6553L5.31934 64.332L0.416016 54.7471L0 53.9355L1.54688 41.8545L1.74609 40.2764L6.55371 37.9248L4.16895 30.9219L9.5 18.7607L10.917 18.4111L15.7451 17.2139L14.9844 14.1787L14.6807 12.9756L15.332 11.9189L19.1074 5.76758L19.6074 4.95703L20.4863 4.58789L30.4922 0.398438L31.4404 0L43.4795 3.36133L44.5 4.85352L45.5205 3.36133L57.5596 0L58.5078 0.398438ZM23.6582 9.66602L21.0273 13.9502L23 22.5996L18.0996 26.5L17.1787 22.9473L13.7529 23.7959L10.5117 31.1875L11.917 35.3047L15.5 33.5V40L7.21582 44.1836L6.10352 52.8711L9.3584 59.2334L13.7617 60.3096L13.7939 60.3184L20.0791 62L21.5 68.5L16.627 67.1445L17.2314 71.2686L25.2744 76.8828L35.8584 75.7344L41.5391 69.0752V50.1934L38.8828 53.1104L37.917 53.2949L30.2588 54.7725V48.8037L35.8242 47.6807L41.5391 41.4072V11.0137L39.8018 8.46875L31.8311 6.24414L23.6582 9.66602ZM49.1982 8.46875L47.4609 11.0137V41.4072L53.1758 47.6807L58.7412 48.8037V54.7725L51.083 53.2949L50.1172 53.1104L47.4609 50.1934V69.0752L53.1416 75.7344L63.7256 76.8828L71.7686 71.2686L72.373 67.1445L67.5 68.5L68.9209 62L75.2061 60.3184L75.2383 60.3096L79.6416 59.2334L82.8965 52.8711L81.7842 44.1836L73.5 40V33.5L77.083 35.3047L78.4883 31.1875L75.2471 23.7959L71.8213 22.9473L70.9004 26.5L66 22.5996L67.9727 13.9502L65.3418 9.66602L57.1689 6.24414L49.1982 8.46875Z" fill="black"/>
</svg>
